<?xml version="1.0" standalone="no"?><!DOCTYPE svg PUBLIC "-//W3C//DTD SVG 1.1//EN" "http://www.w3.org/Graphics/SVG/1.1/DTD/svg11.dtd"><svg t="1511116147570" class="icon" style="" viewBox="0 0 1024 1024" version="1.1" xmlns="http://www.w3.org/2000/svg" p-id="1839" xmlns:xlink="http://www.w3.org/1999/xlink" width="200" height="200"><defs><style type="text/css"></style></defs><path d="M957.046154 452.923077l-653.784615 0c-17.723077 0-25.6-21.661538-13.784615-33.476923l189.046154-189.046154c11.815385-11.815385 11.815385-29.538462 0-41.353846l-43.323077-43.323077c-11.815385-11.815385-29.538462-11.815385-41.353846 0l-344.615385 346.584615c-11.815385 11.815385-11.815385 29.538462 0 41.353846l344.615385 344.615385c11.815385 11.815385 29.538462 11.815385 41.353846 0l41.353846-41.353846c11.815385-11.815385 11.815385-29.538462 0-41.353846l-189.046154-189.046154c-11.815385-13.784615-3.938462-35.446154 13.784615-35.446154l653.784615 0c15.753846 0 29.538462-11.815385 29.538462-27.569231l0-59.076923c0-15.753846-11.815385-31.507692-27.569231-31.507692z" p-id="1840"></path></svg>